<svg width="143" height="143" viewBox="0 0 143 143" fill="none" xmlns="http://www.w3.org/2000/svg">
<g clip-path="url(#clip0_302_197)">
<mask id="path-1-inside-1_302_197" fill="white">
<path fill-rule="evenodd" clip-rule="evenodd" d="M-464.5 143C-442.413 143 -422.666 132.986 -409.55 117.25C-404.219 110.853 -390.781 110.853 -385.45 117.25C-372.334 132.986 -352.587 143 -330.5 143C-308.413 143 -288.666 132.986 -275.55 117.25C-270.219 110.853 -256.781 110.853 -251.45 117.25C-238.334 132.986 -218.587 143 -196.5 143C-174.413 143 -154.666 132.986 -141.55 117.25C-136.219 110.853 -122.781 110.853 -117.45 117.25C-104.334 132.986 -84.5866 143 -62.5 143C-40.4134 143 -20.6658 132.986 -7.55023 117.25C-2.21893 110.853 11.2189 110.853 16.5502 117.25C29.6658 132.986 49.4134 143 71.5 143C93.5866 143 113.334 132.986 126.45 117.25C131.781 110.853 145.219 110.853 150.55 117.25C163.666 132.986 183.413 143 205.5 143C227.587 143 247.334 132.986 260.45 117.25C265.781 110.853 279.219 110.853 284.55 117.25C297.666 132.986 317.413 143 339.5 143C378.988 143 411 110.988 411 71.5C411 32.0116 378.988 0 339.5 0C317.413 0 297.666 10.0145 284.55 25.7504C279.219 32.1468 265.781 32.1468 260.45 25.7504C247.334 10.0145 227.587 0 205.5 0C183.413 0 163.666 10.0145 150.55 25.7504C145.219 32.1468 131.781 32.1468 126.45 25.7504C113.334 10.0145 93.5866 0 71.5 0C49.4134 0 29.6658 10.0145 16.5502 25.7504C11.2189 32.1468 -2.21893 32.1468 -7.55023 25.7504C-20.6658 10.0145 -40.4134 0 -62.5 0C-84.5866 0 -104.334 10.0144 -117.45 25.7503C-122.781 32.1467 -136.219 32.1467 -141.55 25.7503C-154.666 10.0144 -174.413 0 -196.5 0C-218.587 0 -238.334 10.0144 -251.45 25.7503C-256.781 32.1467 -270.219 32.1467 -275.55 25.7503C-288.666 10.0144 -308.413 0 -330.5 0C-352.587 0 -372.334 10.0144 -385.45 25.7503C-390.781 32.1468 -404.219 32.1468 -409.55 25.7503C-422.666 10.0145 -442.413 0 -464.5 0C-503.988 0 -536 32.0116 -536 71.5C-536 110.988 -503.988 143 -464.5 143Z"/>
</mask>
<path fill-rule="evenodd" clip-rule="evenodd" d="M-464.5 143C-442.413 143 -422.666 132.986 -409.55 117.25C-404.219 110.853 -390.781 110.853 -385.45 117.25C-372.334 132.986 -352.587 143 -330.5 143C-308.413 143 -288.666 132.986 -275.55 117.25C-270.219 110.853 -256.781 110.853 -251.45 117.25C-238.334 132.986 -218.587 143 -196.5 143C-174.413 143 -154.666 132.986 -141.55 117.25C-136.219 110.853 -122.781 110.853 -117.45 117.25C-104.334 132.986 -84.5866 143 -62.5 143C-40.4134 143 -20.6658 132.986 -7.55023 117.25C-2.21893 110.853 11.2189 110.853 16.5502 117.25C29.6658 132.986 49.4134 143 71.5 143C93.5866 143 113.334 132.986 126.45 117.25C131.781 110.853 145.219 110.853 150.55 117.25C163.666 132.986 183.413 143 205.5 143C227.587 143 247.334 132.986 260.45 117.25C265.781 110.853 279.219 110.853 284.55 117.25C297.666 132.986 317.413 143 339.5 143C378.988 143 411 110.988 411 71.5C411 32.0116 378.988 0 339.5 0C317.413 0 297.666 10.0145 284.55 25.7504C279.219 32.1468 265.781 32.1468 260.45 25.7504C247.334 10.0145 227.587 0 205.5 0C183.413 0 163.666 10.0145 150.55 25.7504C145.219 32.1468 131.781 32.1468 126.45 25.7504C113.334 10.0145 93.5866 0 71.5 0C49.4134 0 29.6658 10.0145 16.5502 25.7504C11.2189 32.1468 -2.21893 32.1468 -7.55023 25.7504C-20.6658 10.0145 -40.4134 0 -62.5 0C-84.5866 0 -104.334 10.0144 -117.45 25.7503C-122.781 32.1467 -136.219 32.1467 -141.55 25.7503C-154.666 10.0144 -174.413 0 -196.5 0C-218.587 0 -238.334 10.0144 -251.45 25.7503C-256.781 32.1467 -270.219 32.1467 -275.55 25.7503C-288.666 10.0144 -308.413 0 -330.5 0C-352.587 0 -372.334 10.0144 -385.45 25.7503C-390.781 32.1468 -404.219 32.1468 -409.55 25.7503C-422.666 10.0145 -442.413 0 -464.5 0C-503.988 0 -536 32.0116 -536 71.5C-536 110.988 -503.988 143 -464.5 143Z" fill="url(#paint0_linear_302_197)"/>
<path d="M-385.45 25.7503L-384.682 26.3906L-385.45 25.7503ZM-409.55 25.7503L-408.782 25.1101L-409.55 25.7503ZM-409.55 117.25L-410.318 116.609L-409.55 117.25ZM-385.45 117.25L-386.218 117.89L-385.45 117.25ZM-251.45 25.7503L-252.218 25.11L-251.45 25.7503ZM-275.55 25.7503L-276.318 26.3906L-275.55 25.7503ZM16.5502 25.7504L15.7821 25.1101L16.5502 25.7504ZM-7.55023 25.7504L-8.3184 26.3906L-7.55023 25.7504ZM150.55 25.7504L149.782 25.1101L150.55 25.7504ZM126.45 25.7504L127.218 25.1101L126.45 25.7504ZM284.55 25.7504L283.782 25.1101L284.55 25.7504ZM260.45 25.7504L261.218 25.1101L260.45 25.7504ZM126.45 117.25L125.682 116.609L126.45 117.25ZM150.55 117.25L149.782 117.89L150.55 117.25ZM-7.55023 117.25L-6.78207 117.89L-7.55023 117.25ZM16.5502 117.25L15.7821 117.89L16.5502 117.25ZM-251.45 117.25L-250.682 116.609L-251.45 117.25ZM-117.45 117.25L-116.682 116.609L-117.45 117.25ZM260.45 117.25L259.682 116.609L260.45 117.25ZM284.55 117.25L283.782 117.89L284.55 117.25ZM-410.318 116.609C-423.252 132.127 -442.723 142 -464.5 142V144C-442.104 144 -422.08 133.844 -408.782 117.89L-410.318 116.609ZM-330.5 142C-352.277 142 -371.748 132.127 -384.682 116.609L-386.218 117.89C-372.921 133.844 -352.896 144 -330.5 144V142ZM-276.318 116.609C-289.252 132.127 -308.723 142 -330.5 142V144C-308.104 144 -288.08 133.844 -274.782 117.89L-276.318 116.609ZM-196.5 142C-218.277 142 -237.748 132.127 -250.682 116.609L-252.218 117.89C-238.92 133.844 -218.896 144 -196.5 144V142ZM-142.318 116.609C-155.252 132.127 -174.723 142 -196.5 142V144C-174.104 144 -154.08 133.844 -140.782 117.89L-142.318 116.609ZM-62.5 142C-84.2774 142 -103.748 132.127 -116.682 116.609L-118.218 117.89C-104.92 133.844 -84.8958 144 -62.5 144V142ZM-8.3184 116.609C-21.2521 132.127 -40.7226 142 -62.5 142V144C-40.1042 144 -20.0795 133.844 -6.78207 117.89L-8.3184 116.609ZM71.5 142C49.7226 142 30.2521 132.127 17.3184 116.609L15.7821 117.89C29.0795 133.844 49.1042 144 71.5 144V142ZM125.682 116.609C112.748 132.127 93.2774 142 71.5 142V144C93.8958 144 113.921 133.844 127.218 117.89L125.682 116.609ZM205.5 142C183.723 142 164.252 132.127 151.318 116.609L149.782 117.89C163.079 133.844 183.104 144 205.5 144V142ZM259.682 116.609C246.748 132.127 227.277 142 205.5 142V144C227.896 144 247.921 133.844 261.218 117.89L259.682 116.609ZM339.5 142C317.723 142 298.252 132.127 285.318 116.609L283.782 117.89C297.079 133.844 317.104 144 339.5 144V142ZM410 71.5C410 110.436 378.436 142 339.5 142V144C379.541 144 412 111.541 412 71.5H410ZM339.5 1C378.436 1 410 32.5639 410 71.5H412C412 31.4594 379.541 -1 339.5 -1V1ZM285.318 26.3906C298.252 10.8729 317.723 1 339.5 1V-1C317.104 -1 297.08 9.15603 283.782 25.1101L285.318 26.3906ZM205.5 1C227.277 1 246.748 10.8729 259.682 26.3906L261.218 25.1101C247.92 9.15603 227.896 -1 205.5 -1V1ZM151.318 26.3906C164.252 10.8729 183.723 1 205.5 1V-1C183.104 -1 163.08 9.15603 149.782 25.1101L151.318 26.3906ZM71.5 1C93.2774 1 112.748 10.8729 125.682 26.3906L127.218 25.1101C113.92 9.15603 93.8958 -1 71.5 -1V1ZM17.3184 26.3906C30.2521 10.8729 49.7226 1 71.5 1V-1C49.1042 -1 29.0795 9.15603 15.7821 25.1101L17.3184 26.3906ZM-62.5 1C-40.7226 1 -21.2521 10.8729 -8.3184 26.3906L-6.78207 25.1101C-20.0795 9.15603 -40.1042 -1 -62.5 -1V1ZM-116.682 26.3905C-103.748 10.8729 -84.2773 1 -62.5 1V-1C-84.8958 -1 -104.92 9.156 -118.218 25.11L-116.682 26.3905ZM-196.5 1C-174.723 1 -155.252 10.8729 -142.318 26.3906L-140.782 25.11C-154.08 9.156 -174.104 -1 -196.5 -1V1ZM-250.682 26.3905C-237.748 10.8729 -218.277 1 -196.5 1V-1C-218.896 -1 -238.92 9.156 -252.218 25.11L-250.682 26.3905ZM-330.5 1C-308.723 1 -289.252 10.8729 -276.318 26.3906L-274.782 25.11C-288.08 9.156 -308.104 -1 -330.5 -1V1ZM-384.682 26.3906C-371.748 10.8729 -352.277 1 -330.5 1V-1C-352.896 -1 -372.92 9.15601 -386.218 25.1101L-384.682 26.3906ZM-464.5 1C-442.723 1 -423.252 10.8729 -410.318 26.3906L-408.782 25.1101C-422.079 9.15602 -442.104 -1 -464.5 -1V1ZM-535 71.5C-535 32.5639 -503.436 1 -464.5 1V-1C-504.541 -1 -537 31.4594 -537 71.5H-535ZM-464.5 142C-503.436 142 -535 110.436 -535 71.5H-537C-537 111.541 -504.541 144 -464.5 144V142ZM-386.218 25.1101C-388.63 28.0042 -392.989 29.5477 -397.5 29.5477C-402.011 29.5477 -406.37 28.0043 -408.782 25.1101L-410.318 26.3906C-407.399 29.8929 -402.373 31.5477 -397.5 31.5477C-392.627 31.5477 -387.601 29.8929 -384.682 26.3906L-386.218 25.1101ZM-408.782 117.89C-406.37 114.996 -402.011 113.452 -397.5 113.452C-392.989 113.452 -388.63 114.996 -386.218 117.89L-384.682 116.609C-387.601 113.107 -392.627 111.452 -397.5 111.452C-402.373 111.452 -407.399 113.107 -410.318 116.609L-408.782 117.89ZM-252.218 25.11C-254.63 28.0042 -258.989 29.5476 -263.5 29.5476C-268.011 29.5476 -272.37 28.0042 -274.782 25.11L-276.318 26.3906C-273.399 29.8928 -268.373 31.5476 -263.5 31.5476C-258.627 31.5476 -253.601 29.8928 -250.682 26.3905L-252.218 25.11ZM-118.218 25.11C-120.63 28.0042 -124.989 29.5476 -129.5 29.5476C-134.011 29.5476 -138.37 28.0042 -140.782 25.11L-142.318 26.3906C-139.399 29.8928 -134.373 31.5476 -129.5 31.5476C-124.627 31.5476 -119.601 29.8928 -116.682 26.3905L-118.218 25.11ZM15.7821 25.1101C13.3698 28.0043 9.01139 29.5477 4.5 29.5477C-0.0113814 29.5477 -4.36984 28.0043 -6.78207 25.1101L-8.3184 26.3906C-5.39932 29.8929 -0.373196 31.5477 4.5 31.5477C9.3732 31.5477 14.3993 29.8929 17.3184 26.3906L15.7821 25.1101ZM149.782 25.1101C147.37 28.0043 143.011 29.5477 138.5 29.5477C133.989 29.5477 129.63 28.0043 127.218 25.1101L125.682 26.3906C128.601 29.8929 133.627 31.5477 138.5 31.5477C143.373 31.5477 148.399 29.8929 151.318 26.3906L149.782 25.1101ZM283.782 25.1101C281.37 28.0043 277.011 29.5477 272.5 29.5477C267.989 29.5477 263.63 28.0043 261.218 25.1101L259.682 26.3906C262.601 29.8929 267.627 31.5477 272.5 31.5477C277.373 31.5477 282.399 29.8929 285.318 26.3906L283.782 25.1101ZM127.218 117.89C129.63 114.996 133.989 113.452 138.5 113.452C143.011 113.452 147.37 114.996 149.782 117.89L151.318 116.609C148.399 113.107 143.373 111.452 138.5 111.452C133.627 111.452 128.601 113.107 125.682 116.609L127.218 117.89ZM-6.78207 117.89C-4.36984 114.996 -0.0113829 113.452 4.5 113.452C9.01138 113.452 13.3698 114.996 15.7821 117.89L17.3184 116.609C14.3993 113.107 9.3732 111.452 4.5 111.452C-0.373198 111.452 -5.39932 113.107 -8.3184 116.609L-6.78207 117.89ZM-274.782 117.89C-272.37 114.996 -268.011 113.452 -263.5 113.452C-258.989 113.452 -254.63 114.996 -252.218 117.89L-250.682 116.609C-253.601 113.107 -258.627 111.452 -263.5 111.452C-268.373 111.452 -273.399 113.107 -276.318 116.609L-274.782 117.89ZM-140.782 117.89C-138.37 114.996 -134.011 113.452 -129.5 113.452C-124.989 113.452 -120.63 114.996 -118.218 117.89L-116.682 116.609C-119.601 113.107 -124.627 111.452 -129.5 111.452C-134.373 111.452 -139.399 113.107 -142.318 116.609L-140.782 117.89ZM261.218 117.89C263.63 114.996 267.989 113.452 272.5 113.452C277.011 113.452 281.37 114.996 283.782 117.89L285.318 116.609C282.399 113.107 277.373 111.452 272.5 111.452C267.627 111.452 262.601 113.107 259.682 116.609L261.218 117.89Z" fill="#454648" mask="url(#path-1-inside-1_302_197)"/>
</g>
<defs>
<linearGradient id="paint0_linear_302_197" x1="-62.5" y1="143" x2="-62.5" y2="-3.65042e-06" gradientUnits="userSpaceOnUse">
<stop stop-color="#1F2024"/>
<stop offset="1" stop-color="#26272B"/>
</linearGradient>
<clipPath id="clip0_302_197">
<rect width="143" height="143" fill="white"/>
</clipPath>
</defs>
</svg>
