<svg width="143" height="143" viewBox="0 0 143 143" fill="none" xmlns="http://www.w3.org/2000/svg">
<g clip-path="url(#clip0_302_207)">
<mask id="path-1-inside-1_302_207" fill="white">
<path fill-rule="evenodd" clip-rule="evenodd" d="M-732.5 143C-710.413 143 -690.666 132.986 -677.55 117.25C-672.219 110.853 -658.781 110.853 -653.45 117.25C-640.334 132.986 -620.587 143 -598.5 143C-576.413 143 -556.666 132.986 -543.55 117.25C-538.219 110.853 -524.781 110.853 -519.45 117.25C-506.334 132.986 -486.587 143 -464.5 143C-442.413 143 -422.666 132.986 -409.55 117.25C-404.219 110.853 -390.781 110.853 -385.45 117.25C-372.334 132.986 -352.587 143 -330.5 143C-308.413 143 -288.666 132.986 -275.55 117.25C-270.219 110.853 -256.781 110.853 -251.45 117.25C-238.334 132.986 -218.587 143 -196.5 143C-174.413 143 -154.666 132.986 -141.55 117.25C-136.219 110.853 -122.781 110.853 -117.45 117.25C-104.334 132.986 -84.5866 143 -62.5 143C-40.4134 143 -20.6658 132.986 -7.55024 117.25C-2.21893 110.853 11.2189 110.853 16.5502 117.25C29.6658 132.986 49.4134 143 71.5 143C110.988 143 143 110.988 143 71.5C143 32.0116 110.988 0 71.5 0C49.4134 0 29.6658 10.0145 16.5502 25.7504C11.2189 32.1468 -2.21893 32.1468 -7.55024 25.7504C-20.6658 10.0145 -40.4134 0 -62.5 0C-84.5866 0 -104.334 10.0145 -117.45 25.7504C-122.781 32.1468 -136.219 32.1468 -141.55 25.7504C-154.666 10.0145 -174.413 0 -196.5 0C-218.587 0 -238.334 10.0145 -251.45 25.7504C-256.781 32.1468 -270.219 32.1468 -275.55 25.7504C-288.666 10.0145 -308.413 0 -330.5 0C-352.587 0 -372.334 10.0144 -385.45 25.7503C-390.781 32.1467 -404.219 32.1467 -409.55 25.7503C-422.666 10.0144 -442.413 0 -464.5 0C-486.587 0 -506.334 10.0144 -519.45 25.7503C-524.781 32.1467 -538.219 32.1467 -543.55 25.7503C-556.666 10.0144 -576.413 0 -598.5 0C-620.587 0 -640.334 10.0144 -653.45 25.7503C-658.781 32.1468 -672.219 32.1468 -677.55 25.7503C-690.666 10.0145 -710.413 0 -732.5 0C-771.988 0 -804 32.0116 -804 71.5C-804 110.988 -771.988 143 -732.5 143Z"/>
</mask>
<path fill-rule="evenodd" clip-rule="evenodd" d="M-732.5 143C-710.413 143 -690.666 132.986 -677.55 117.25C-672.219 110.853 -658.781 110.853 -653.45 117.25C-640.334 132.986 -620.587 143 -598.5 143C-576.413 143 -556.666 132.986 -543.55 117.25C-538.219 110.853 -524.781 110.853 -519.45 117.25C-506.334 132.986 -486.587 143 -464.5 143C-442.413 143 -422.666 132.986 -409.55 117.25C-404.219 110.853 -390.781 110.853 -385.45 117.25C-372.334 132.986 -352.587 143 -330.5 143C-308.413 143 -288.666 132.986 -275.55 117.25C-270.219 110.853 -256.781 110.853 -251.45 117.25C-238.334 132.986 -218.587 143 -196.5 143C-174.413 143 -154.666 132.986 -141.55 117.25C-136.219 110.853 -122.781 110.853 -117.45 117.25C-104.334 132.986 -84.5866 143 -62.5 143C-40.4134 143 -20.6658 132.986 -7.55024 117.25C-2.21893 110.853 11.2189 110.853 16.5502 117.25C29.6658 132.986 49.4134 143 71.5 143C110.988 143 143 110.988 143 71.5C143 32.0116 110.988 0 71.5 0C49.4134 0 29.6658 10.0145 16.5502 25.7504C11.2189 32.1468 -2.21893 32.1468 -7.55024 25.7504C-20.6658 10.0145 -40.4134 0 -62.5 0C-84.5866 0 -104.334 10.0145 -117.45 25.7504C-122.781 32.1468 -136.219 32.1468 -141.55 25.7504C-154.666 10.0145 -174.413 0 -196.5 0C-218.587 0 -238.334 10.0145 -251.45 25.7504C-256.781 32.1468 -270.219 32.1468 -275.55 25.7504C-288.666 10.0145 -308.413 0 -330.5 0C-352.587 0 -372.334 10.0144 -385.45 25.7503C-390.781 32.1467 -404.219 32.1467 -409.55 25.7503C-422.666 10.0144 -442.413 0 -464.5 0C-486.587 0 -506.334 10.0144 -519.45 25.7503C-524.781 32.1467 -538.219 32.1467 -543.55 25.7503C-556.666 10.0144 -576.413 0 -598.5 0C-620.587 0 -640.334 10.0144 -653.45 25.7503C-658.781 32.1468 -672.219 32.1468 -677.55 25.7503C-690.666 10.0145 -710.413 0 -732.5 0C-771.988 0 -804 32.0116 -804 71.5C-804 110.988 -771.988 143 -732.5 143Z" fill="url(#paint0_linear_302_207)"/>
<path d="M-653.45 25.7503L-652.682 26.3906L-653.45 25.7503ZM-677.55 25.7503L-676.782 25.1101L-677.55 25.7503ZM-677.55 117.25L-678.318 116.609L-677.55 117.25ZM-653.45 117.25L-654.218 117.89L-653.45 117.25ZM-519.45 25.7503L-520.218 25.11L-519.45 25.7503ZM-543.55 25.7503L-544.318 26.3906L-543.55 25.7503ZM-251.45 25.7504L-252.218 25.1101L-251.45 25.7504ZM-275.55 25.7504L-276.318 26.3906L-275.55 25.7504ZM-117.45 25.7504L-118.218 25.1101L-117.45 25.7504ZM-141.55 25.7504L-140.782 25.1101L-141.55 25.7504ZM16.5502 25.7504L15.7821 25.1101L16.5502 25.7504ZM-7.55024 25.7504L-6.78207 25.1101L-7.55024 25.7504ZM-141.55 117.25L-142.318 116.609L-141.55 117.25ZM-117.45 117.25L-118.218 117.89L-117.45 117.25ZM-275.55 117.25L-274.782 117.89L-275.55 117.25ZM-251.45 117.25L-252.218 117.89L-251.45 117.25ZM-519.45 117.25L-518.682 116.609L-519.45 117.25ZM-385.45 117.25L-384.682 116.609L-385.45 117.25ZM-7.55024 117.25L-8.3184 116.609L-7.55024 117.25ZM16.5502 117.25L15.7821 117.89L16.5502 117.25ZM-678.318 116.609C-691.252 132.127 -710.723 142 -732.5 142V144C-710.104 144 -690.08 133.844 -676.782 117.89L-678.318 116.609ZM-598.5 142C-620.277 142 -639.748 132.127 -652.682 116.609L-654.218 117.89C-640.921 133.844 -620.896 144 -598.5 144V142ZM-544.318 116.609C-557.252 132.127 -576.723 142 -598.5 142V144C-576.104 144 -556.08 133.844 -542.782 117.89L-544.318 116.609ZM-464.5 142C-486.277 142 -505.748 132.127 -518.682 116.609L-520.218 117.89C-506.92 133.844 -486.896 144 -464.5 144V142ZM-410.318 116.609C-423.252 132.127 -442.723 142 -464.5 142V144C-442.104 144 -422.08 133.844 -408.782 117.89L-410.318 116.609ZM-330.5 142C-352.277 142 -371.748 132.127 -384.682 116.609L-386.218 117.89C-372.92 133.844 -352.896 144 -330.5 144V142ZM-276.318 116.609C-289.252 132.127 -308.723 142 -330.5 142V144C-308.104 144 -288.079 133.844 -274.782 117.89L-276.318 116.609ZM-196.5 142C-218.277 142 -237.748 132.127 -250.682 116.609L-252.218 117.89C-238.921 133.844 -218.896 144 -196.5 144V142ZM-142.318 116.609C-155.252 132.127 -174.723 142 -196.5 142V144C-174.104 144 -154.079 133.844 -140.782 117.89L-142.318 116.609ZM-62.5 142C-84.2774 142 -103.748 132.127 -116.682 116.609L-118.218 117.89C-104.921 133.844 -84.8958 144 -62.5 144V142ZM-8.3184 116.609C-21.2521 132.127 -40.7226 142 -62.5 142V144C-40.1042 144 -20.0795 133.844 -6.78207 117.89L-8.3184 116.609ZM71.5 142C49.7226 142 30.2521 132.127 17.3184 116.609L15.7821 117.89C29.0795 133.844 49.1042 144 71.5 144V142ZM142 71.5C142 110.436 110.436 142 71.5 142V144C111.541 144 144 111.541 144 71.5H142ZM71.5 1C110.436 1 142 32.5639 142 71.5H144C144 31.4594 111.541 -1 71.5 -1V1ZM17.3184 26.3906C30.2521 10.8729 49.7226 1 71.5 1V-1C49.1042 -1 29.0795 9.15603 15.7821 25.1101L17.3184 26.3906ZM-62.5 1C-40.7226 1 -21.2521 10.8729 -8.3184 26.3906L-6.78207 25.1101C-20.0795 9.15603 -40.1042 -1 -62.5 -1V1ZM-116.682 26.3906C-103.748 10.8729 -84.2774 1 -62.5 1V-1C-84.8958 -1 -104.92 9.15603 -118.218 25.1101L-116.682 26.3906ZM-196.5 1C-174.723 1 -155.252 10.8729 -142.318 26.3906L-140.782 25.1101C-154.08 9.15603 -174.104 -1 -196.5 -1V1ZM-250.682 26.3906C-237.748 10.8729 -218.277 1 -196.5 1V-1C-218.896 -1 -238.92 9.15603 -252.218 25.1101L-250.682 26.3906ZM-330.5 1C-308.723 1 -289.252 10.8729 -276.318 26.3906L-274.782 25.1101C-288.079 9.15603 -308.104 -1 -330.5 -1V1ZM-384.682 26.3905C-371.748 10.8729 -352.277 1 -330.5 1V-1C-352.896 -1 -372.92 9.156 -386.218 25.11L-384.682 26.3905ZM-464.5 1C-442.723 1 -423.252 10.8729 -410.318 26.3906L-408.782 25.11C-422.08 9.156 -442.104 -1 -464.5 -1V1ZM-518.682 26.3905C-505.748 10.8729 -486.277 1 -464.5 1V-1C-486.896 -1 -506.92 9.156 -520.218 25.11L-518.682 26.3905ZM-598.5 1C-576.723 1 -557.252 10.8729 -544.318 26.3906L-542.782 25.11C-556.08 9.156 -576.104 -1 -598.5 -1V1ZM-652.682 26.3906C-639.748 10.8729 -620.277 1 -598.5 1V-1C-620.896 -1 -640.92 9.15601 -654.218 25.1101L-652.682 26.3906ZM-732.5 1C-710.723 1 -691.252 10.8729 -678.318 26.3906L-676.782 25.1101C-690.079 9.15602 -710.104 -1 -732.5 -1V1ZM-803 71.5C-803 32.5639 -771.436 1 -732.5 1V-1C-772.541 -1 -805 31.4594 -805 71.5H-803ZM-732.5 142C-771.436 142 -803 110.436 -803 71.5H-805C-805 111.541 -772.541 144 -732.5 144V142ZM-654.218 25.1101C-656.63 28.0042 -660.989 29.5477 -665.5 29.5477C-670.011 29.5477 -674.37 28.0043 -676.782 25.1101L-678.318 26.3906C-675.399 29.8929 -670.373 31.5477 -665.5 31.5477C-660.627 31.5477 -655.601 29.8929 -652.682 26.3906L-654.218 25.1101ZM-676.782 117.89C-674.37 114.996 -670.011 113.452 -665.5 113.452C-660.989 113.452 -656.63 114.996 -654.218 117.89L-652.682 116.609C-655.601 113.107 -660.627 111.452 -665.5 111.452C-670.373 111.452 -675.399 113.107 -678.318 116.609L-676.782 117.89ZM-520.218 25.11C-522.63 28.0042 -526.989 29.5476 -531.5 29.5476C-536.011 29.5476 -540.37 28.0042 -542.782 25.11L-544.318 26.3906C-541.399 29.8928 -536.373 31.5476 -531.5 31.5476C-526.627 31.5476 -521.601 29.8928 -518.682 26.3905L-520.218 25.11ZM-386.218 25.11C-388.63 28.0042 -392.989 29.5476 -397.5 29.5476C-402.011 29.5476 -406.37 28.0042 -408.782 25.11L-410.318 26.3906C-407.399 29.8928 -402.373 31.5476 -397.5 31.5476C-392.627 31.5476 -387.601 29.8928 -384.682 26.3905L-386.218 25.11ZM-252.218 25.1101C-254.63 28.0043 -258.989 29.5477 -263.5 29.5477C-268.011 29.5477 -272.37 28.0043 -274.782 25.1101L-276.318 26.3906C-273.399 29.8929 -268.373 31.5477 -263.5 31.5477C-258.627 31.5477 -253.601 29.8929 -250.682 26.3906L-252.218 25.1101ZM-118.218 25.1101C-120.63 28.0043 -124.989 29.5477 -129.5 29.5477C-134.011 29.5477 -138.37 28.0043 -140.782 25.1101L-142.318 26.3906C-139.399 29.8929 -134.373 31.5477 -129.5 31.5477C-124.627 31.5477 -119.601 29.8929 -116.682 26.3906L-118.218 25.1101ZM15.7821 25.1101C13.3698 28.0043 9.01138 29.5477 4.5 29.5477C-0.0113845 29.5477 -4.36984 28.0043 -6.78207 25.1101L-8.3184 26.3906C-5.39932 29.8929 -0.373199 31.5477 4.5 31.5477C9.3732 31.5477 14.3993 29.8929 17.3184 26.3906L15.7821 25.1101ZM-140.782 117.89C-138.37 114.996 -134.011 113.452 -129.5 113.452C-124.989 113.452 -120.63 114.996 -118.218 117.89L-116.682 116.609C-119.601 113.107 -124.627 111.452 -129.5 111.452C-134.373 111.452 -139.399 113.107 -142.318 116.609L-140.782 117.89ZM-274.782 117.89C-272.37 114.996 -268.011 113.452 -263.5 113.452C-258.989 113.452 -254.63 114.996 -252.218 117.89L-250.682 116.609C-253.601 113.107 -258.627 111.452 -263.5 111.452C-268.373 111.452 -273.399 113.107 -276.318 116.609L-274.782 117.89ZM-542.782 117.89C-540.37 114.996 -536.011 113.452 -531.5 113.452C-526.989 113.452 -522.63 114.996 -520.218 117.89L-518.682 116.609C-521.601 113.107 -526.627 111.452 -531.5 111.452C-536.373 111.452 -541.399 113.107 -544.318 116.609L-542.782 117.89ZM-408.782 117.89C-406.37 114.996 -402.011 113.452 -397.5 113.452C-392.989 113.452 -388.63 114.996 -386.218 117.89L-384.682 116.609C-387.601 113.107 -392.627 111.452 -397.5 111.452C-402.373 111.452 -407.399 113.107 -410.318 116.609L-408.782 117.89ZM-6.78207 117.89C-4.36984 114.996 -0.011384 113.452 4.5 113.452C9.01138 113.452 13.3698 114.996 15.7821 117.89L17.3184 116.609C14.3993 113.107 9.3732 111.452 4.5 111.452C-0.373199 111.452 -5.39932 113.107 -8.3184 116.609L-6.78207 117.89Z" fill="#454648" mask="url(#path-1-inside-1_302_207)"/>
</g>
<defs>
<linearGradient id="paint0_linear_302_207" x1="-330.5" y1="143" x2="-330.5" y2="-3.65042e-06" gradientUnits="userSpaceOnUse">
<stop stop-color="#1F2024"/>
<stop offset="1" stop-color="#26272B"/>
</linearGradient>
<clipPath id="clip0_302_207">
<rect width="143" height="143" fill="white"/>
</clipPath>
</defs>
</svg>
