<svg width="143" height="143" viewBox="0 0 143 143" fill="none" xmlns="http://www.w3.org/2000/svg">
<g clip-path="url(#clip0_302_187)">
<mask id="path-1-inside-1_302_187" fill="white">
<path fill-rule="evenodd" clip-rule="evenodd" d="M71.5 143C93.5866 143 113.334 132.986 126.45 117.25C131.781 110.853 145.219 110.853 150.55 117.25C163.666 132.986 183.413 143 205.5 143C227.587 143 247.334 132.986 260.45 117.25C265.781 110.853 279.219 110.853 284.55 117.25C297.666 132.986 317.413 143 339.5 143C361.587 143 381.334 132.986 394.45 117.25C399.781 110.853 413.219 110.853 418.55 117.25C431.666 132.986 451.413 143 473.5 143C495.587 143 515.334 132.986 528.45 117.25C533.781 110.853 547.219 110.853 552.55 117.25C565.666 132.986 585.413 143 607.5 143C629.587 143 649.334 132.986 662.45 117.25C667.781 110.853 681.219 110.853 686.55 117.25C699.666 132.986 719.413 143 741.5 143C763.587 143 783.334 132.986 796.45 117.25C801.781 110.853 815.219 110.853 820.55 117.25C833.666 132.986 853.413 143 875.5 143C914.988 143 947 110.988 947 71.5C947 32.0116 914.988 0 875.5 0C853.413 0 833.666 10.0145 820.55 25.7504C815.219 32.1468 801.781 32.1468 796.45 25.7504C783.334 10.0145 763.587 0 741.5 0C719.413 0 699.666 10.0145 686.55 25.7504C681.219 32.1468 667.781 32.1468 662.45 25.7504C649.334 10.0145 629.587 0 607.5 0C585.413 0 565.666 10.0145 552.55 25.7504C547.219 32.1468 533.781 32.1468 528.45 25.7504C515.334 10.0145 495.587 0 473.5 0C451.413 0 431.666 10.0144 418.55 25.7503C413.219 32.1467 399.781 32.1467 394.45 25.7503C381.334 10.0144 361.587 0 339.5 0C317.413 0 297.666 10.0144 284.55 25.7503C279.219 32.1467 265.781 32.1467 260.45 25.7503C247.334 10.0144 227.587 0 205.5 0C183.413 0 163.666 10.0144 150.55 25.7503C145.219 32.1468 131.781 32.1468 126.45 25.7503C113.334 10.0145 93.5866 0 71.5 0C32.0116 0 0 32.0116 0 71.5C0 110.988 32.0116 143 71.5 143Z"/>
</mask>
<path fill-rule="evenodd" clip-rule="evenodd" d="M71.5 143C93.5866 143 113.334 132.986 126.45 117.25C131.781 110.853 145.219 110.853 150.55 117.25C163.666 132.986 183.413 143 205.5 143C227.587 143 247.334 132.986 260.45 117.25C265.781 110.853 279.219 110.853 284.55 117.25C297.666 132.986 317.413 143 339.5 143C361.587 143 381.334 132.986 394.45 117.25C399.781 110.853 413.219 110.853 418.55 117.25C431.666 132.986 451.413 143 473.5 143C495.587 143 515.334 132.986 528.45 117.25C533.781 110.853 547.219 110.853 552.55 117.25C565.666 132.986 585.413 143 607.5 143C629.587 143 649.334 132.986 662.45 117.25C667.781 110.853 681.219 110.853 686.55 117.25C699.666 132.986 719.413 143 741.5 143C763.587 143 783.334 132.986 796.45 117.25C801.781 110.853 815.219 110.853 820.55 117.25C833.666 132.986 853.413 143 875.5 143C914.988 143 947 110.988 947 71.5C947 32.0116 914.988 0 875.5 0C853.413 0 833.666 10.0145 820.55 25.7504C815.219 32.1468 801.781 32.1468 796.45 25.7504C783.334 10.0145 763.587 0 741.5 0C719.413 0 699.666 10.0145 686.55 25.7504C681.219 32.1468 667.781 32.1468 662.45 25.7504C649.334 10.0145 629.587 0 607.5 0C585.413 0 565.666 10.0145 552.55 25.7504C547.219 32.1468 533.781 32.1468 528.45 25.7504C515.334 10.0145 495.587 0 473.5 0C451.413 0 431.666 10.0144 418.55 25.7503C413.219 32.1467 399.781 32.1467 394.45 25.7503C381.334 10.0144 361.587 0 339.5 0C317.413 0 297.666 10.0144 284.55 25.7503C279.219 32.1467 265.781 32.1467 260.45 25.7503C247.334 10.0144 227.587 0 205.5 0C183.413 0 163.666 10.0144 150.55 25.7503C145.219 32.1468 131.781 32.1468 126.45 25.7503C113.334 10.0145 93.5866 0 71.5 0C32.0116 0 0 32.0116 0 71.5C0 110.988 32.0116 143 71.5 143Z" fill="url(#paint0_linear_302_187)"/>
<path d="M150.55 25.7503L151.318 26.3906L150.55 25.7503ZM126.45 25.7503L127.218 25.1101L126.45 25.7503ZM126.45 117.25L125.682 116.609L126.45 117.25ZM150.55 117.25L149.782 117.89L150.55 117.25ZM284.55 25.7503L283.782 25.11L284.55 25.7503ZM260.45 25.7503L259.682 26.3906L260.45 25.7503ZM552.55 25.7504L551.782 25.1101L552.55 25.7504ZM528.45 25.7504L527.682 26.3906L528.45 25.7504ZM686.55 25.7504L685.782 25.1101L686.55 25.7504ZM662.45 25.7504L663.218 25.1101L662.45 25.7504ZM820.55 25.7504L819.782 25.1101L820.55 25.7504ZM796.45 25.7504L797.218 25.1101L796.45 25.7504ZM662.45 117.25L661.682 116.609L662.45 117.25ZM686.55 117.25L685.782 117.89L686.55 117.25ZM528.45 117.25L529.218 117.89L528.45 117.25ZM552.55 117.25L551.782 117.89L552.55 117.25ZM284.55 117.25L285.318 116.609L284.55 117.25ZM418.55 117.25L419.318 116.609L418.55 117.25ZM796.45 117.25L795.682 116.609L796.45 117.25ZM820.55 117.25L819.782 117.89L820.55 117.25ZM125.682 116.609C112.748 132.127 93.2774 142 71.5 142V144C93.8958 144 113.92 133.844 127.218 117.89L125.682 116.609ZM205.5 142C183.723 142 164.252 132.127 151.318 116.609L149.782 117.89C163.079 133.844 183.104 144 205.5 144V142ZM259.682 116.609C246.748 132.127 227.277 142 205.5 142V144C227.896 144 247.92 133.844 261.218 117.89L259.682 116.609ZM339.5 142C317.723 142 298.252 132.127 285.318 116.609L283.782 117.89C297.08 133.844 317.104 144 339.5 144V142ZM393.682 116.609C380.748 132.127 361.277 142 339.5 142V144C361.896 144 381.92 133.844 395.218 117.89L393.682 116.609ZM473.5 142C451.723 142 432.252 132.127 419.318 116.609L417.782 117.89C431.08 133.844 451.104 144 473.5 144V142ZM527.682 116.609C514.748 132.127 495.277 142 473.5 142V144C495.896 144 515.921 133.844 529.218 117.89L527.682 116.609ZM607.5 142C585.723 142 566.252 132.127 553.318 116.609L551.782 117.89C565.079 133.844 585.104 144 607.5 144V142ZM661.682 116.609C648.748 132.127 629.277 142 607.5 142V144C629.896 144 649.921 133.844 663.218 117.89L661.682 116.609ZM741.5 142C719.723 142 700.252 132.127 687.318 116.609L685.782 117.89C699.079 133.844 719.104 144 741.5 144V142ZM795.682 116.609C782.748 132.127 763.277 142 741.5 142V144C763.896 144 783.921 133.844 797.218 117.89L795.682 116.609ZM875.5 142C853.723 142 834.252 132.127 821.318 116.609L819.782 117.89C833.079 133.844 853.104 144 875.5 144V142ZM946 71.5C946 110.436 914.436 142 875.5 142V144C915.541 144 948 111.541 948 71.5H946ZM875.5 1C914.436 1 946 32.5639 946 71.5H948C948 31.4594 915.541 -1 875.5 -1V1ZM821.318 26.3906C834.252 10.8729 853.723 1 875.5 1V-1C853.104 -1 833.08 9.15603 819.782 25.1101L821.318 26.3906ZM741.5 1C763.277 1 782.748 10.8729 795.682 26.3906L797.218 25.1101C783.92 9.15603 763.896 -1 741.5 -1V1ZM687.318 26.3906C700.252 10.8729 719.723 1 741.5 1V-1C719.104 -1 699.08 9.15603 685.782 25.1101L687.318 26.3906ZM607.5 1C629.277 1 648.748 10.8729 661.682 26.3906L663.218 25.1101C649.92 9.15603 629.896 -1 607.5 -1V1ZM553.318 26.3906C566.252 10.8729 585.723 1 607.5 1V-1C585.104 -1 565.08 9.15603 551.782 25.1101L553.318 26.3906ZM473.5 1C495.277 1 514.748 10.8729 527.682 26.3906L529.218 25.1101C515.921 9.15603 495.896 -1 473.5 -1V1ZM419.318 26.3905C432.252 10.8729 451.723 1 473.5 1V-1C451.104 -1 431.08 9.156 417.782 25.11L419.318 26.3905ZM339.5 1C361.277 1 380.748 10.8729 393.682 26.3906L395.218 25.11C381.92 9.156 361.896 -1 339.5 -1V1ZM285.318 26.3905C298.252 10.8729 317.723 1 339.5 1V-1C317.104 -1 297.08 9.156 283.782 25.11L285.318 26.3905ZM205.5 1C227.277 1 246.748 10.8729 259.682 26.3906L261.218 25.11C247.92 9.156 227.896 -1 205.5 -1V1ZM151.318 26.3906C164.252 10.8729 183.723 1 205.5 1V-1C183.104 -1 163.08 9.15601 149.782 25.1101L151.318 26.3906ZM71.5 1C93.2774 1 112.748 10.8729 125.682 26.3906L127.218 25.1101C113.921 9.15602 93.8958 -1 71.5 -1V1ZM1 71.5C1 32.5639 32.5639 1 71.5 1V-1C31.4594 -1 -1 31.4594 -1 71.5H1ZM71.5 142C32.5639 142 1 110.436 1 71.5H-1C-1 111.541 31.4594 144 71.5 144V142ZM149.782 25.1101C147.37 28.0042 143.011 29.5477 138.5 29.5477C133.989 29.5477 129.63 28.0043 127.218 25.1101L125.682 26.3906C128.601 29.8929 133.627 31.5477 138.5 31.5477C143.373 31.5477 148.399 29.8929 151.318 26.3906L149.782 25.1101ZM127.218 117.89C129.63 114.996 133.989 113.452 138.5 113.452C143.011 113.452 147.37 114.996 149.782 117.89L151.318 116.609C148.399 113.107 143.373 111.452 138.5 111.452C133.627 111.452 128.601 113.107 125.682 116.609L127.218 117.89ZM283.782 25.11C281.37 28.0042 277.011 29.5476 272.5 29.5476C267.989 29.5476 263.63 28.0042 261.218 25.11L259.682 26.3906C262.601 29.8928 267.627 31.5476 272.5 31.5476C277.373 31.5476 282.399 29.8928 285.318 26.3905L283.782 25.11ZM417.782 25.11C415.37 28.0042 411.011 29.5476 406.5 29.5476C401.989 29.5476 397.63 28.0042 395.218 25.11L393.682 26.3906C396.601 29.8928 401.627 31.5476 406.5 31.5476C411.373 31.5476 416.399 29.8928 419.318 26.3905L417.782 25.11ZM551.782 25.1101C549.37 28.0043 545.011 29.5477 540.5 29.5477C535.989 29.5477 531.63 28.0043 529.218 25.1101L527.682 26.3906C530.601 29.8929 535.627 31.5477 540.5 31.5477C545.373 31.5477 550.399 29.8929 553.318 26.3906L551.782 25.1101ZM685.782 25.1101C683.37 28.0043 679.011 29.5477 674.5 29.5477C669.989 29.5477 665.63 28.0043 663.218 25.1101L661.682 26.3906C664.601 29.8929 669.627 31.5477 674.5 31.5477C679.373 31.5477 684.399 29.8929 687.318 26.3906L685.782 25.1101ZM819.782 25.1101C817.37 28.0043 813.011 29.5477 808.5 29.5477C803.989 29.5477 799.63 28.0043 797.218 25.1101L795.682 26.3906C798.601 29.8929 803.627 31.5477 808.5 31.5477C813.373 31.5477 818.399 29.8929 821.318 26.3906L819.782 25.1101ZM663.218 117.89C665.63 114.996 669.989 113.452 674.5 113.452C679.011 113.452 683.37 114.996 685.782 117.89L687.318 116.609C684.399 113.107 679.373 111.452 674.5 111.452C669.627 111.452 664.601 113.107 661.682 116.609L663.218 117.89ZM529.218 117.89C531.63 114.996 535.989 113.452 540.5 113.452C545.011 113.452 549.37 114.996 551.782 117.89L553.318 116.609C550.399 113.107 545.373 111.452 540.5 111.452C535.627 111.452 530.601 113.107 527.682 116.609L529.218 117.89ZM261.218 117.89C263.63 114.996 267.989 113.452 272.5 113.452C277.011 113.452 281.37 114.996 283.782 117.89L285.318 116.609C282.399 113.107 277.373 111.452 272.5 111.452C267.627 111.452 262.601 113.107 259.682 116.609L261.218 117.89ZM395.218 117.89C397.63 114.996 401.989 113.452 406.5 113.452C411.011 113.452 415.37 114.996 417.782 117.89L419.318 116.609C416.399 113.107 411.373 111.452 406.5 111.452C401.627 111.452 396.601 113.107 393.682 116.609L395.218 117.89ZM797.218 117.89C799.63 114.996 803.989 113.452 808.5 113.452C813.011 113.452 817.37 114.996 819.782 117.89L821.318 116.609C818.399 113.107 813.373 111.452 808.5 111.452C803.627 111.452 798.601 113.107 795.682 116.609L797.218 117.89Z" fill="#454648" mask="url(#path-1-inside-1_302_187)"/>
</g>
<defs>
<linearGradient id="paint0_linear_302_187" x1="473.5" y1="143" x2="473.5" y2="-3.65042e-06" gradientUnits="userSpaceOnUse">
<stop stop-color="#1F2024"/>
<stop offset="1" stop-color="#26272B"/>
</linearGradient>
<clipPath id="clip0_302_187">
<rect width="143" height="143" fill="white"/>
</clipPath>
</defs>
</svg>
