<svg xmlns="http://www.w3.org/2000/svg" xml:space="preserve" viewBox="0 0 1368 294">
  <style>
    .st3{fill:url(#SVGID_00000097493172182410029810000016777869769452730786_)}
  </style>
  <g id="Infinity_mark">
    <path fill="#fff" d="M1346.9 294H21.1C9.4 294 0 284.4 0 272.6V21.4C0 9.6 9.4 0 21.1 0h1325.8c11.6 0 21.1 9.6 21.1 21.4v251.1c0 11.9-9.4 21.5-21.1 21.5z"/>
    <path d="M438.2 126V95.8h-10.4v-4.6c5.9-.1 10-3.4 11-8.1h5.7V126h-6.3zm18.5-36.9c2.8-4.2 7.1-6.9 13.1-6.9s10.4 2.7 13.1 6.9c2.8 4.2 3.8 9.6 3.8 15.5s-1 11.3-3.8 15.5c-2.8 4.2-7.1 6.9-13.1 6.9s-10.4-2.7-13.1-6.9c-2.8-4.2-3.8-9.6-3.8-15.5s.9-11.3 3.8-15.5zm6.3 29.4c1.6 1.7 3.8 2.8 6.8 2.8s5.1-1.1 6.8-2.8c2.6-2.7 3.8-7.3 3.8-13.9 0-6.5-1.2-11.2-3.8-13.9-1.6-1.7-3.8-2.8-6.8-2.8s-5.2 1.1-6.8 2.8c-2.6 2.7-3.8 7.3-3.8 13.9 0 6.5 1.2 11.2 3.8 13.9zm34.6-29.4c2.8-4.2 7.1-6.9 13.1-6.9 6.1 0 10.4 2.7 13.1 6.9 2.8 4.2 3.8 9.6 3.8 15.5s-1 11.3-3.8 15.5c-2.8 4.2-7.1 6.9-13.1 6.9-6.1 0-10.4-2.7-13.1-6.9-2.8-4.2-3.8-9.6-3.8-15.5s.9-11.3 3.8-15.5zm6.3 29.4c1.6 1.7 3.8 2.8 6.8 2.8s5.1-1.1 6.8-2.8c2.6-2.7 3.8-7.3 3.8-13.9 0-6.5-1.2-11.2-3.8-13.9-1.6-1.7-3.8-2.8-6.8-2.8s-5.2 1.1-6.8 2.8c-2.6 2.7-3.8 7.3-3.8 13.9.1 6.5 1.2 11.2 3.8 13.9zm40-35.7c5.7 0 10.6 4.6 10.6 10.4 0 5.9-5 10.4-10.6 10.4-5.7 0-10.6-4.6-10.6-10.4.1-5.9 4.9-10.4 10.6-10.4zm-5.3 43.2 30.8-42.8h5.9L544.7 126h-6.1zm5.3-27.7c2.9 0 5.1-2.2 5.1-5.2s-2.2-5.1-5.1-5.1c-2.8 0-5.1 2.2-5.1 5.1 0 3.1 2.3 5.2 5.1 5.2zm26.2 7.4c5.7 0 10.6 4.6 10.6 10.4 0 5.9-4.9 10.4-10.6 10.4s-10.6-4.6-10.6-10.4c0-5.8 4.9-10.4 10.6-10.4zm0 15.6c2.9 0 5.1-2.2 5.1-5.2s-2.2-5.1-5.1-5.1c-2.8 0-5.1 2.2-5.1 5.1 0 3 2.2 5.2 5.1 5.2zm64.8-11.2c0 9.7-6.7 16.9-16.2 16.9s-16.2-7.2-16.2-16.9c0-9.6 6.7-16.8 16.2-16.8 9.4 0 16.2 7.2 16.2 16.8zm-6.4 0c0-7.3-4.6-11.3-9.9-11.3-5.3 0-9.9 4-9.9 11.3 0 7.4 4.6 11.4 9.9 11.4 5.3-.1 9.9-4 9.9-11.4zM649 126h-6.2V94.2h6.1v4.6c2.3-4 6.1-5.5 9.8-5.5 7.6 0 11.4 5.5 11.4 12.5V126h-6.2v-19.1c0-4.4-1.8-8-7.4-8-4.9 0-7.4 3.9-7.4 8.7V126zm30.1-16.2v-5.4H697v5.4h-17.9zm31.5.3c0 7.3 4.6 11.2 9.7 11.2 5.9 0 8.1-4 8.8-6.5l5.5 2.4c-1.5 4.6-6.1 9.9-14.3 9.9-9.2 0-16-7.3-16-16.9 0-9.9 6.9-16.8 16-16.8 8.4 0 12.8 5.3 14.1 10.1l-5.6 2.4c-.8-3.1-3.1-6.7-8.5-6.7-5.1-.2-9.7 3.5-9.7 10.9zm37.6 15.9H742V78.2h6.2v19.7c2.3-3.4 6-4.6 9.6-4.6 7.6 0 11.4 5.5 11.4 12.5V126H763v-19.1c0-4.4-1.8-8-7.4-8-4.8 0-7.3 3.7-7.4 8.4V126zm38.2-18.2 8.6-1.3c1.9-.3 2.4-1.3 2.4-2.4 0-3.1-2-5.7-6.9-5.7-4.4 0-6.8 2.7-7.2 6.4l-5.9-1.4c.7-6.1 6.1-10.3 13-10.3 9.5 0 13.2 5.4 13.2 11.6v15.9c0 2.8.3 4.4.4 5.2h-6.1c-.1-.8-.3-2-.3-4.3-1.4 2.2-4.6 5.3-10.2 5.3-6.5 0-10.6-4.5-10.6-9.5 0-5.5 4.1-8.7 9.6-9.5zm11 4.6V111l-9.7 1.5c-2.6.4-4.6 1.9-4.6 4.8 0 2.4 2 4.6 5.2 4.6 5-.1 9.1-2.6 9.1-9.5zm19-34.7c2.5 0 4.5 2 4.5 4.5 0 2.4-2 4.4-4.5 4.4-2.4 0-4.4-2-4.4-4.4 0-2.5 2-4.5 4.4-4.5zm-3 48.3V94.2h6.1V126h-6.1zm22.4 0h-6.2V94.2h6.1v4.6c2.3-4 6.1-5.5 9.8-5.5 7.6 0 11.4 5.5 11.4 12.5V126h-6.2v-19.1c0-4.4-1.8-8-7.4-8-4.9 0-7.4 3.9-7.4 8.7V126zm-398.2 76.9c1.6 0 2.9-1.3 2.9-2.9v-40.1c0-1.6-1.3-2.9-2.9-2.9h-3.2c-1.6 0-2.9 1.3-2.9 2.9V200c0 1.6 1.3 2.9 2.9 2.9h3.2zm60.9 0c1.6 0 2.9-1.3 2.9-2.9v-40.1c0-1.6-1.3-2.9-2.9-2.9h-3.1c-1.6 0-2.9 1.3-2.9 2.9v27.5l-18.3-29c-.5-.9-1.5-1.4-2.5-1.4h-6.6c-1.6 0-2.9 1.3-2.9 2.9V200c0 1.6 1.3 2.9 2.9 2.9h3.1c1.6 0 2.9-1.3 2.9-2.9v-29.7l20 31.3c.5.8 1.5 1.4 2.5 1.4h4.9zm54.1-37.5c1.6 0 2.9-1.3 2.9-2.9v-2.6c0-1.6-1.3-2.9-2.9-2.9h-32.2c-1.6 0-2.9 1.3-2.9 2.9v2.6c0 1.6 1.3 2.9 2.9 2.9H532V200c0 1.6 1.3 2.9 2.9 2.9h3.1c1.6 0 2.9-1.3 2.9-2.9v-34.5h11.7zm47 37.5c1.6 0 2.9-1.3 2.9-2.9v-2.5c0-1.6-1.3-2.9-2.9-2.9h-16.9V184h15c1.6 0 2.9-1.3 2.9-2.9V179c0-1.6-1.3-2.9-2.9-2.9h-15v-10.5h16.9c1.6 0 2.9-1.3 2.9-2.9v-2.5c0-1.6-1.3-2.9-2.9-2.9h-22.9c-1.6 0-2.9 1.3-2.9 2.9V200c0 1.6 1.3 2.9 2.9 2.9h22.9zm47.1-1.6c.5 1 1.5 1.6 2.6 1.6h3.3c2.2 0 3.6-2.4 2.6-4.3l-7.6-14.5c6-1.8 9.8-6.6 9.8-13 0-8-5.7-14.1-14.7-14.1h-15c-1.6 0-2.9 1.3-2.9 2.9V200c0 1.6 1.3 2.9 2.9 2.9h3.1c1.6 0 2.9-1.3 2.9-2.9v-14.8h4.7l8.3 16.1zm-12.8-23.8v-12.8h7.3c4.5 0 7.2 2.5 7.2 6.4 0 3.8-2.7 6.4-7.2 6.4h-7.3zm79 25.4c1.6 0 2.9-1.3 2.9-2.9v-40.1c0-1.6-1.3-2.9-2.9-2.9h-3.1c-1.6 0-2.9 1.3-2.9 2.9v27.5l-18.3-29c-.5-.9-1.5-1.4-2.5-1.4h-6.6c-1.6 0-2.9 1.3-2.9 2.9V200c0 1.6 1.3 2.9 2.9 2.9h3.1c1.6 0 2.9-1.3 2.9-2.9v-29.7l20 31.3c.5.8 1.5 1.4 2.5 1.4h4.9zm52.4 0c1.6 0 2.9-1.3 2.9-2.9v-2.5c0-1.6-1.3-2.9-2.9-2.9h-16.9V184h15c1.6 0 2.9-1.3 2.9-2.9V179c0-1.6-1.3-2.9-2.9-2.9h-15v-10.5h16.9c1.6 0 2.9-1.3 2.9-2.9v-2.5c0-1.6-1.3-2.9-2.9-2.9h-22.9c-1.6 0-2.9 1.3-2.9 2.9V200c0 1.6 1.3 2.9 2.9 2.9h22.9zm53.4-37.5c1.6 0 2.9-1.3 2.9-2.9v-2.6c0-1.6-1.3-2.9-2.9-2.9h-32.2c-1.6 0-2.9 1.3-2.9 2.9v2.6c0 1.6 1.3 2.9 2.9 2.9h11.6V200c0 1.6 1.3 2.9 2.9 2.9h3.1c1.6 0 2.9-1.3 2.9-2.9v-34.5h11.7zm68 38.5c11.3 0 17.8-6.6 20.4-13 .6-1.5-.3-3-1.8-3.5l-2.8-.9c-1.6-.5-3.2.4-4 1.9-1.9 3.5-5.6 6.6-11.8 6.6-7.4 0-14.3-5.4-14.3-15.2 0-10.4 7.3-15.4 14.1-15.4 6.2 0 9.8 3 11.5 6.4.8 1.5 2.5 2.5 4.1 2l2.8-.9c1.5-.5 2.4-2 1.8-3.5-2.6-6.6-9-12.6-20.2-12.6-12.3 0-23.4 9.3-23.4 24 .1 14.8 10.8 24.1 23.6 24.1zm44.2-24c0-10.4 7.3-15.3 14.3-15.3 7.1 0 14.4 4.9 14.4 15.3s-7.3 15.3-14.4 15.3c-7.1 0-14.3-4.9-14.3-15.3zm-9.3.1c0 14.8 11.2 23.9 23.6 23.9 12.5 0 23.7-9.1 23.7-23.9 0-14.9-11.2-24-23.7-24s-23.6 9.1-23.6 24zm112.4 22.9c1.6 0 2.9-1.3 2.9-2.9v-40.1c0-1.6-1.3-2.9-2.9-2.9h-7.3c-1.2 0-2.3.7-2.7 1.8l-12.7 31.4-13.1-31.4c-.5-1.1-1.5-1.8-2.7-1.8h-6.9c-1.6 0-2.9 1.3-2.9 2.9V200c0 1.6 1.3 2.9 2.9 2.9h2.7c1.6 0 2.9-1.3 2.9-2.9v-29l12.5 30.2c.5 1.1 1.5 1.8 2.7 1.8h3.5c1.2 0 2.3-.7 2.7-1.8l12.5-30.4V200c0 1.6 1.3 2.9 2.9 2.9h3zm31.8-25v-13.2h7.1c4.5 0 7.2 2.5 7.2 6.6 0 4-2.7 6.6-7.2 6.6h-7.1zm8.2 7.7c9.1 0 15.1-6 15.1-14.3s-6-14.3-15.1-14.3h-14.2c-1.6 0-2.9 1.3-2.9 2.9V200c0 1.6 1.3 2.9 2.9 2.9h3.1c1.6 0 2.9-1.3 2.9-2.9v-14.4h8.2zm50.2 18.4c9.9 0 17.7-6 17.7-17.3v-26.8c0-1.6-1.3-2.9-2.9-2.9h-3.1c-1.6 0-2.9 1.3-2.9 2.9V186c0 6-3.3 9.2-8.8 9.2-5.3 0-8.7-3.2-8.7-9.2v-26.1c0-1.6-1.3-2.9-2.9-2.9h-3.1c-1.6 0-2.9 1.3-2.9 2.9v26.8c0 11.2 7.8 17.3 17.6 17.3zm67.8-38.6c1.6 0 2.9-1.3 2.9-2.9v-2.6c0-1.6-1.3-2.9-2.9-2.9h-32.2c-1.6 0-2.9 1.3-2.9 2.9v2.6c0 1.6 1.3 2.9 2.9 2.9h11.6V200c0 1.6 1.3 2.9 2.9 2.9h3.1c1.6 0 2.9-1.3 2.9-2.9v-34.5h11.7zm44.7 37.5c1.6 0 2.9-1.3 2.9-2.9v-2.5c0-1.6-1.3-2.9-2.9-2.9h-16.9V184h15c1.6 0 2.9-1.3 2.9-2.9V179c0-1.6-1.3-2.9-2.9-2.9h-15v-10.5h16.9c1.6 0 2.9-1.3 2.9-2.9v-2.5c0-1.6-1.3-2.9-2.9-2.9h-22.9c-1.6 0-2.9 1.3-2.9 2.9V200c0 1.6 1.3 2.9 2.9 2.9h22.9zm44.5-1.6c.5 1 1.5 1.6 2.6 1.6h3.3c2.2 0 3.6-2.4 2.6-4.3l-7.6-14.5c6-1.8 9.8-6.6 9.8-13 0-8-5.7-14.1-14.7-14.1h-15c-1.6 0-2.9 1.3-2.9 2.9V200c0 1.6 1.3 2.9 2.9 2.9h3.1c1.6 0 2.9-1.3 2.9-2.9v-14.8h4.7l8.3 16.1zm-12.8-23.8v-12.8h7.3c4.5 0 7.2 2.5 7.2 6.4 0 3.8-2.7 6.4-7.2 6.4h-7.3z"/>
    <path fill="#29a3da" d="M332.6 196.6c-21.7 0-44.6-14.2-55.8-24.5-12.3-11.3-46.1-47.9-46.2-48C208.4 99.4 178.7 72 149 72c-35.8 0-67 24.8-75.1 57.6.6-2.2 12-32.2 54.7-32.2 21.7 0 44.6 14.2 55.8 24.5 12.3 11.3 46.1 47.9 46.2 48 22.1 24.7 51.9 52.1 81.6 52.1 35.8 0 67-24.8 75.1-57.6-.6 2.2-12 32.2-54.7 32.2z"/>
    <linearGradient id="SVGID_1_" x1="188.986" x2="84.513" y1="212.188" y2="104.004" gradientUnits="userSpaceOnUse">
      <stop offset=".22" stop-color="#e51e79"/>
      <stop offset=".892" stop-color="#522780"/>
    </linearGradient>
    <path fill="url(#SVGID_1_)" d="M230.6 169.9c-.1-.1-9.8-10.6-20.7-22.1-5.9 7-14.4 16.5-24.1 25.1-18.2 15.9-30 19.3-36.8 19.3-25.5 0-46.3-20.2-46.3-45.1 0-24.7 20.8-44.9 46.3-45.1.9 0 2 .1 3.4.3-7.7-2.9-15.8-4.9-23.8-4.9-42.7 0-54.1 30-54.7 32.2-1.4 5.6-2.1 11.4-2.1 17.4 0 41.4 34.1 75 76.7 75 17.7 0 37.6-9.1 58.1-27 9.7-8.5 18.1-17.5 24.4-24.8-.3-.1-.3-.2-.4-.3z"/>
    <linearGradient id="SVGID_00000081617171329293498970000017291382726622347929_" x1="2286.034" x2="2181.562" y1="1537.241" y2="1429.057" gradientTransform="rotate(180 1279.07 809.559)" gradientUnits="userSpaceOnUse">
      <stop offset=".21" stop-color="#e95a24"/>
      <stop offset=".684" stop-color="#f3a83b"/>
    </linearGradient>
    <path fill="url(#SVGID_00000081617171329293498970000017291382726622347929_)" d="M230.6 124.1c.1.1 9.8 10.6 20.7 22.1 5.9-7 14.4-16.5 24.1-25.1 18.2-15.9 30-19.3 36.8-19.3 25.5 0 46.3 20.2 46.3 45.1 0 24.7-20.8 44.9-46.3 45.1-.9 0-2-.1-3.4-.3 7.7 2.9 15.8 4.9 23.8 4.9 42.7 0 54.1-30 54.7-32.2 1.4-5.6 2.1-11.4 2.1-17.4 0-41.4-34.7-75-77.2-75-17.7 0-37 9.1-57.5 27-9.7 8.5-18.1 17.5-24.4 24.8l.3.3z"/>
  </g>
</svg>
