<svg xmlns="http://www.w3.org/2000/svg" xml:space="preserve" viewBox="0 0 1299 340">

  <path fill="url(#a)" d="M34.9 0h1229.2c19.3 0 34.9 16.1 34.9 36.1V304c0 19.9-15.6 36.1-34.9 36.1H34.9C15.6 340 0 323.9 0 303.9V36.1C0 16.1 15.6 0 34.9 0z"/>
  <path fill="#fff" d="M512 199.9v-50.3h-17.3V142c9.9-.2 16.7-5.7 18.4-13.4h9.5v71.3H512zm30.7-61.5c4.6-6.9 11.8-11.4 21.9-11.4 10.1 0 17.3 4.5 21.9 11.4 4.7 7 6.4 16.1 6.4 25.9s-1.7 18.8-6.4 25.9c-4.6 6.9-11.8 11.4-21.9 11.4-10.1 0-17.3-4.5-21.9-11.4-4.7-7-6.4-16.1-6.4-25.9s1.7-18.8 6.4-25.9zm10.6 49c2.8 2.9 6.3 4.6 11.3 4.6s8.6-1.8 11.3-4.6c4.3-4.5 6.3-12.2 6.3-23.1 0-10.9-2-18.6-6.3-23.1-2.7-2.9-6.3-4.6-11.3-4.6s-8.6 1.8-11.3 4.6c-4.3 4.5-6.3 12.2-6.3 23.1 0 10.9 2 18.6 6.3 23.1zm57.7-49c4.6-6.9 11.8-11.4 21.9-11.4s17.3 4.5 21.9 11.4c4.7 7 6.4 16.1 6.4 25.9s-1.7 18.8-6.4 25.9c-4.6 6.9-11.8 11.4-21.9 11.4s-17.3-4.5-21.9-11.4c-4.7-7-6.4-16.1-6.4-25.9s1.6-18.8 6.4-25.9zm10.5 49c2.7 2.9 6.3 4.6 11.3 4.6s8.6-1.8 11.3-4.6c4.3-4.5 6.3-12.2 6.3-23.1 0-10.9-2-18.6-6.3-23.1-2.8-2.9-6.3-4.6-11.3-4.6s-8.6 1.8-11.3 4.6c-4.3 4.5-6.3 12.2-6.3 23.1 0 10.9 2 18.6 6.3 23.1zm66.7-59.5c9.5 0 17.7 7.6 17.7 17.3 0 9.8-8.3 17.4-17.7 17.4-9.5 0-17.6-7.6-17.6-17.4 0-9.7 8.1-17.3 17.6-17.3zm-8.8 72 51.3-71.3h9.9l-51.1 71.3h-10.1zm8.8-46.1c4.8 0 8.5-3.6 8.5-8.7 0-4.9-3.6-8.6-8.5-8.6-4.7 0-8.5 3.6-8.5 8.6 0 5.1 3.7 8.7 8.5 8.7zm43.5 12.4c9.5 0 17.7 7.6 17.7 17.3 0 9.8-8.2 17.4-17.7 17.4s-17.6-7.6-17.6-17.4c0-9.7 8.2-17.3 17.6-17.3zm0 25.9c4.8 0 8.5-3.6 8.5-8.7 0-5-3.6-8.6-8.5-8.6-4.7 0-8.5 3.6-8.5 8.6.1 5.1 3.8 8.7 8.5 8.7zm108.1-18.7c0 16.2-11.2 28.2-27.1 28.2s-27.1-12-27.1-28.2c0-16.1 11.2-28.1 27.1-28.1s27.1 12.1 27.1 28.1zm-10.6 0c0-12.2-7.7-18.8-16.5-18.8s-16.5 6.6-16.5 18.8c0 12.3 7.7 18.9 16.5 18.9s16.5-6.6 16.5-18.9zm34.1 26.5H853V147h10.1v7.6c3.9-6.6 10.1-9.1 16.3-9.1 12.7 0 18.9 9.1 18.9 20.9V200h-10.4v-31.8c0-7.4-3.1-13.3-12.3-13.3-8.1 0-12.3 6.5-12.3 14.5v30.5zm50.2-27v-9h29.8v9h-29.8zm52.5.5c0 12.1 7.6 18.6 16.2 18.6 9.9 0 13.5-6.7 14.7-10.9l9.1 4c-2.5 7.6-10.1 16.5-23.9 16.5-15.4 0-26.7-12.1-26.7-28.2 0-16.5 11.6-28.1 26.6-28.1 14.1 0 21.3 8.8 23.6 16.8l-9.4 4c-1.3-5.2-5.2-11.2-14.2-11.2-8.3 0-16 6.2-16 18.5zm62.6 26.5h-10.3v-79.7h10.3v32.9c3.9-5.6 10-7.7 16.1-7.7 12.6 0 18.9 9.1 18.9 20.9v33.6h-10.3v-31.8c0-7.4-3.1-13.3-12.3-13.3-7.9 0-12.1 6.2-12.3 14v31.1zm63.7-30.2 14.3-2.1c3.2-.4 4.1-2.1 4.1-4 0-5.2-3.4-9.5-11.4-9.5-7.3 0-11.3 4.5-12 10.7l-9.9-2.3c1.1-10.1 10.2-17.2 21.7-17.2 15.8 0 22 9 22 19.4v26.5c0 4.6.4 7.4.7 8.7h-10.1c-.2-1.3-.5-3.3-.5-7.2-2.3 3.7-7.6 8.8-17.1 8.8-10.8 0-17.7-7.5-17.7-15.8-.2-9.4 6.8-14.7 15.9-16zm18.4 7.6v-2.4l-16.2 2.4c-4.4.7-7.7 3.2-7.7 7.9 0 4 3.3 7.7 8.6 7.7 8.5 0 15.3-4.1 15.3-15.6zm31.7-57.8c4.2 0 7.5 3.3 7.5 7.5 0 4.1-3.3 7.4-7.5 7.4-4.1 0-7.4-3.3-7.4-7.4 0-4.2 3.3-7.5 7.4-7.5zm-5.1 80.4V147h10.2v52.9h-10.2zm37.3 0h-10.4V147h10.1v7.6c3.9-6.6 10.1-9.1 16.3-9.1 12.7 0 18.9 9.1 18.9 20.9V200h-10.3v-31.8c0-7.4-3.1-13.3-12.3-13.3-8.1 0-12.3 6.5-12.3 14.5v30.5z"/>
  <path fill="#29a3da" d="M368.2 222.9c-23.1 0-47.6-15.1-59.5-26.1-13.1-12-49.1-51.1-49.3-51.2-23.6-26.4-55.4-55.6-87-55.6-38.2 0-71.4 26.4-80.1 61.4.7-2.3 12.8-34.4 58.3-34.4 23.1 0 47.6 15.1 59.5 26.1 13.1 12 49.1 51.1 49.3 51.2 23.6 26.4 55.4 55.6 87.1 55.6 38.2 0 71.4-26.4 80.1-61.4-.7 2.4-12.8 34.4-58.4 34.4z"/>
  <linearGradient id="b" x1="215.046" x2="103.609" y1="239.534" y2="124.138" gradientUnits="userSpaceOnUse">
    <stop offset=".22" stop-color="#e51e79"/>
    <stop offset=".892" stop-color="#522780"/>
  </linearGradient>
  <path fill="url(#b)" d="M259.4 194.4c-.1-.1-10.5-11.3-22.1-23.6-6.3 7.5-15.3 17.6-25.8 26.7-19.4 17-32 20.6-39.2 20.6-27.2 0-49.4-21.6-49.4-48.1 0-26.4 22.2-47.9 49.4-48.1 1 0 2.2.1 3.6.4-8.2-3.1-16.9-5.2-25.4-5.2-45.5 0-57.7 32.1-58.3 34.4-1.5 6-2.3 12.2-2.3 18.6 0 44.1 36.4 80 81.8 80 18.9 0 40.1-9.7 61.9-28.8 10.3-9 19.3-18.7 26-26.5 0-.2-.1-.3-.2-.4z"/>
  <linearGradient id="c" x1="2293.433" x2="2181.996" y1="1579.582" y2="1464.186" gradientTransform="rotate(180 1298.57 840.059)" gradientUnits="userSpaceOnUse">
    <stop offset=".21" stop-color="#e95a24"/>
    <stop offset=".684" stop-color="#f3a83b"/>
  </linearGradient>
  <path fill="url(#c)" d="M259.4 145.6c.1.1 10.5 11.3 22.1 23.6 6.3-7.5 15.3-17.6 25.8-26.7 19.4-17 32-20.6 39.2-20.6 27.2 0 49.4 21.6 49.4 48.1 0 26.4-22.2 47.9-49.4 48.1-1 0-2.2-.1-3.6-.4 8.2 3.1 16.9 5.2 25.4 5.2 45.5 0 57.7-32.1 58.3-34.4 1.5-6 2.3-12.2 2.3-18.6 0-44.1-37-80-82.4-80-18.9 0-39.5 9.7-61.3 28.8-10.3 9-19.3 18.7-26 26.5 0 .2.1.3.2.4z"/>
</svg>
